<svg viewBox="0 0 37 43" preserveAspectRatio="xMinYMid" version="1.1" xmlns="http://www.w3.org/2000/svg" xmlns:xlink="http://www.w3.org/1999/xlink">
    <g stroke="none" stroke-width="1" fill="none" fill-rule="evenodd">
        <g transform="translate(-217.000000, -3785.000000)" fill="#FFFFFF">
            <g transform="translate(192.000000, 3673.000000)">
                <g transform="translate(0.000000, 102.000000)">
                    <g transform="translate(25.000000, 9.000000)">
                        <g>
                            <path d="M30.369729,23.3670134 C30.3144458,18.0349934 34.8609931,15.4775267 35.0638872,15.3489032 C32.5093307,11.7320766 28.5288456,11.2357876 27.111611,11.1798921 C23.727523,10.8464408 20.504087,13.1097933 18.7865276,13.1097933 C17.0733154,13.1097933 14.4202886,11.2283775 11.6136974,11.2759481 C7.92059044,11.329465 4.51760216,13.3554221 2.61708849,16.5554574 C-1.21748678,22.9945907 1.63663852,32.5382523 5.37293254,37.765068 C7.20001878,40.3192414 9.37836599,43.1941502 12.2359878,43.0888546 C14.9908869,42.983559 16.0309671,41.3635983 19.3605279,41.3635983 C22.6901833,41.3635983 23.6258397,43.0888546 26.5395953,43.0346058 C29.5015464,42.9827356 31.3795688,40.4311237 33.1920074,37.866247 C35.2885165,34.8985756 36.152352,32.0253135 36.2032882,31.8791255 C36.1392163,31.8505832 30.4290757,29.7325953 30.369729,23.3670134 L30.369729,23.3670134 Z M24.8944238,7.72087172 C26.4099396,5.93962853 27.4368842,3.46412954 27.1582001,1.00024874 C24.9704028,1.08624168 22.3224791,2.408063 20.7525306,4.18765953 C19.3456913,5.76672782 18.1150966,8.28064919 18.4447168,10.7001613 C20.8844543,10.8832165 23.373616,9.49882157 24.8944238,7.72087172 L24.8944238,7.72087172 Z" id="app_store"></path>
                        </g>
                    </g>
                </g>
            </g>
        </g>
    </g>
</svg>