<svg width="100%" viewBox="0 0 283 283" version="1.1" xmlns="http://www.w3.org/2000/svg" xmlns:xlink="http://www.w3.org/1999/xlink">
    <defs>
        <rect id="path-1" x="0.888984414" y="0.606697134" width="100.79732" height="168.264081"></rect>
        <linearGradient x1="53.2534523%" y1="43.6996491%" x2="72.25737%" y2="55.2882012%" id="linearGradient-3">
            <stop stop-color="#FFFFFF" stop-opacity="0.05" offset="0%"></stop>
            <stop stop-color="#FFFFFF" stop-opacity="0" offset="100%"></stop>
        </linearGradient>
        <linearGradient x1="50%" y1="0%" x2="50%" y2="100%" id="linearGradient-4">
            <stop stop-color="#1B2220" offset="0%"></stop>
            <stop stop-color="#141615" offset="100%"></stop>
        </linearGradient>
        <path id="path-5" d="M0,0 L0,170.206112 L93.3133341,170.206112 L93.3133341,0 L0,0 L0,0 Z"></path>
        <rect id="path-7" x="0.657891321" y="0.54562347" width="86.2100786" height="148.434385"></rect>
    </defs>
    <g id="Page-1" stroke="none" stroke-width="1" fill="none" fill-rule="evenodd">
        <g id="Artboard-3" transform="translate(-455.000000, -897.000000)">
            <g id="icon" transform="translate(455.000000, 897.000000)">
                <circle id="Oval-103" fill="#F6D443" cx="141.5" cy="141.367801" r="141.125"></circle>
                <g id="1422548001_32-windows8" transform="translate(69.715695, 205.790640)"></g>
                <g id="Group" transform="translate(146.000000, 14.000000)">
                    <path d="M92.1451599,211.338894 L19.679862,211.338894 C5.98071942,211.338894 0.0827321439,203.135651 0.0827321439,192.757642 L0.0827321439,19.3318412 C0.0827321439,12.2520431 5.98071942,0.755294722 19.679862,0.755294722 L92.1428037,0.755294722 C105.846659,0.755294722 111.739937,10.8470498 111.739934,19.3318412 L111.739934,192.757642 C111.739937,203.135651 105.849015,211.338894 92.1451599,211.338894 Z" id="Shape" fill="#1A211F"></path>
                    <g transform="translate(45.183735, 7.940954)">
                        <path d="M22.3131985,2.16679323 C22.3131985,2.95257926 21.3919112,3.57838491 20.260919,3.57838491 L2.07315125,3.57838491 C0.93744662,3.57838491 0.0161592527,2.95257926 0.0161592527,2.16679323 L0.0161592527,2.16679323 C0.0161592527,1.3904178 0.93744662,0.759906854 2.07315125,0.759906854 L20.260919,0.759906854 C21.3942674,0.759906854 22.3131985,1.3904178 22.3131985,2.16679323 L22.3131985,2.16679323 L22.3131985,2.16679323 Z" id="Shape" fill="#323636"></path>
                        <ellipse id="Oval" fill="#323636" cx="25.3456713" cy="2.2726626" rx="1.55040176" ry="1.54804554"></ellipse>
                        <ellipse id="Oval" fill="#323636" cx="29.4832176" cy="2.2726626" rx="1.55040176" ry="1.54804554"></ellipse>
                        <path d="M46.4292502,2.91493682 C46.4292502,4.06303138 45.4985379,5.00173985 44.3439834,5.00173985 C43.1941414,5.00173985 42.2587166,4.06538403 42.2587166,2.91493682 C42.2587166,1.77154756 43.1917851,0.83283909 44.3439834,0.83283909 C45.4985379,0.83283909 46.4292502,1.77154756 46.4292502,2.91493682 L46.4292502,2.91493682 Z" id="Shape" fill="#161A1A"></path>
                    </g>
                    <path d="M67.2448168,201.337767 C67.2448168,203.433981 65.9653819,205.137301 64.3867054,205.137301 L47.6173903,205.137301 C46.0434262,205.137301 44.7639913,203.431628 44.7639913,201.337767 L44.7639913,198.641627 C44.7639913,196.540708 46.0434262,194.842093 47.6173903,194.842093 L64.3867054,194.842093 C65.9653819,194.842093 67.2448168,196.543061 67.2448168,198.641627 L67.2448168,201.337767 L67.2448168,201.337767 Z" id="btn" fill="#242929"></path>
                    <g id="glass" transform="translate(4.000000, 20.000000)">                       
                        <use id="Rectangle-path" fill="#3F5E6E" xlink:href="#path-1"></use>
                        <path d="M11.2016329,-12.1571623 L106.311785,190.346772 L108.697833,-40.264733 L11.2016329,-12.1571623 Z" id="Path-602" opacity="0.6" fill="url(#linearGradient-3)"></path>
                    </g>
                    <g id="android-logo" transform="translate(36.427699, 71.551282)" fill="#FFFFFF" opacity="0.304221082">
                        <path d="M28.021,4.568 L28.568,3.749 L29.105,2.941 L30.314,1.128 C30.462,0.905 30.402,0.605 30.181,0.456 C29.956,0.307 29.656,0.367 29.507,0.591 L28.212,2.535 L27.667,3.352 L27.114,4.18 C25.362,3.501 23.409,3.12 21.346,3.12 C19.285,3.12 17.332,3.501 15.58,4.18 L15.03,3.352 L14.485,2.535 L13.188,0.59 C13.04,0.367 12.739,0.307 12.515,0.455 C12.293,0.603 12.233,0.904 12.381,1.127 L13.589,2.94 L14.128,3.748 L14.675,4.567 C10.56,6.483 7.777,10.113 7.777,14.268 L34.919,14.268 C34.919,10.114 32.136,6.484 28.021,4.568 L28.021,4.568 Z M15.532,10.391 C14.727,10.391 14.077,9.74 14.077,8.937 C14.077,8.134 14.727,7.484 15.532,7.484 C16.335,7.484 16.985,8.134 16.985,8.937 C16.985,9.74 16.335,10.391 15.532,10.391 L15.532,10.391 Z M27.163,10.391 C26.36,10.391 25.71,9.74 25.71,8.937 C25.71,8.134 26.36,7.484 27.163,7.484 C27.968,7.484 28.618,8.134 28.618,8.937 C28.618,9.74 27.968,10.391 27.163,10.391 L27.163,10.391 Z" id="Shape"></path>
                        <path d="M7.986,16.208 L7.777,16.208 L7.777,18.626 L7.777,20.599 L7.777,37.535 C7.777,39.228 9.153,40.605 10.846,40.605 L13.062,40.605 C12.988,40.861 12.946,41.132 12.946,41.412 L12.946,41.574 L12.946,42.543 L12.946,47.553 C12.946,49.158 14.249,50.461 15.855,50.461 C17.461,50.461 18.763,49.158 18.763,47.553 L18.763,42.543 L18.763,41.574 L18.763,41.412 C18.763,41.133 18.72,40.861 18.648,40.605 L24.048,40.605 C23.974,40.861 23.933,41.132 23.933,41.412 L23.933,41.574 L23.933,42.543 L23.933,47.553 C23.933,49.158 25.236,50.461 26.841,50.461 C28.446,50.461 29.749,49.158 29.749,47.553 L29.749,42.543 L29.749,41.574 L29.749,41.412 C29.749,41.133 29.708,40.861 29.634,40.605 L31.849,40.605 C33.542,40.605 34.919,39.228 34.919,37.535 L34.919,20.599 L34.919,18.626 L34.919,16.208 L34.71,16.208 L7.986,16.208 L7.986,16.208 Z" id="Shape"></path>
                        <path d="M2.929,16.208 C1.323,16.208 0.021,17.509 0.021,19.117 L0.021,31.556 C0.021,33.161 1.323,34.464 2.929,34.464 C4.534,34.464 5.837,33.161 5.837,31.556 L5.837,19.116 C5.837,17.509 4.535,16.208 2.929,16.208 L2.929,16.208 Z" id="Shape"></path>
                        <path d="M39.767,16.208 C38.16,16.208 36.859,17.509 36.859,19.117 L36.859,31.556 C36.859,33.161 38.16,34.464 39.767,34.464 C41.372,34.464 42.673,33.161 42.673,31.556 L42.673,19.116 C42.673,17.509 41.372,16.208 39.767,16.208 L39.767,16.208 Z" id="Shape"></path>
                    </g>
                </g>
                <g id="Group" transform="translate(26.000000, 14.000000)">
                    <path d="M9.09494702e-13,13.027025 L9.09494702e-13,197.767122 C9.09494702e-13,208.226737 6.16685137,210.597103 13.7706864,210.597103 L91.56412,210.597103 C99.16946,210.597103 105.334805,207.945312 105.334806,197.767122 L105.334806,13.027025 C105.334805,2.89872866 99.167955,0.197044335 91.56412,0.197044335 L13.7706864,0.197044335 C6.16534639,0.197044335 9.09494702e-13,2.89872866 9.09494702e-13,13.027025 Z" id="glass" fill="url(#linearGradient-4)"></path>
                    <g id="glass" transform="translate(5.717663, 15.453615)">
                        <use id="view-port" fill="#3F5E6E" xlink:href="#path-5"></use>
                        <path d="M7.2344856,-21.1108418 L92.2438255,175.373166 L94.5461526,-47.623808 L7.2344856,-21.1108418 Z" id="Path-604" opacity="0.721431903" fill="url(#linearGradient-3)"></path>
                    </g>
                    <g id="1422548001_32-windows8" transform="translate(33.000000, 72.000000)" fill="#FFFFFF" opacity="0.304920709" >
                        <path d="M0.60101976,33.2815674 L16.1851086,35.5387305 L16.1851086,20.6287266 L0.60101976,20.6287266 L0.60101976,33.2815674 L0.60101976,33.2815674 Z M0.60101976,18.4988383 L16.1851086,18.4988383 L16.1851086,3.58726304 L0.60101976,5.84442614 L0.60101976,18.4988383 L0.60101976,18.4988383 Z M18.3149969,35.8474897 L39.2257707,38.8761579 L39.2257707,20.6287266 L18.3149969,20.6287266 L18.3149969,35.8474897 L18.3149969,35.8474897 Z M18.3149969,3.27771822 L18.3149969,18.4988383 L39.2257707,18.4988383 L39.2257707,0.250621312 L18.3149969,3.27771822 L18.3149969,3.27771822 Z" id="Shape"></path>
                    </g>
                    <path d="M46.9028911,202.171939 L51.7567853,202.876001 L51.7567853,198.225222 L46.9028911,198.225222 L46.9028911,202.171939 L46.9028911,202.171939 Z M46.9028911,197.56086 L51.7567853,197.56086 L51.7567853,192.909592 L46.9028911,193.613653 L46.9028911,197.56086 L46.9028911,197.56086 Z M52.4201704,202.97231 L58.9331391,203.917022 L58.9331391,198.225222 L52.4201704,198.225222 L52.4201704,202.97231 L52.4201704,202.97231 Z M52.4201704,192.813037 L52.4201704,197.56086 L58.9331391,197.56086 L58.9331391,191.868815 L52.4201704,192.813037 L52.4201704,192.813037 Z" id="Shape" fill-opacity="0.28" fill="#FFFFFF"></path>
                </g>
                <g id="Group" transform="translate(93.000000, 61.000000)">
                    <path d="M82.0706966,1.9506421 L87.733218,1.9506421 C93.257445,1.9506421 97.7357158,6.42864603 97.7357158,11.9576243 L97.7357158,193.390325 C97.7357158,198.917029 93.2600393,203.397307 87.733218,203.397307 L11.9492373,203.397307 C6.42501031,203.397307 1.94673951,198.919303 1.94673951,193.390325 L1.94673951,49.0726691 C1.28545462,49.0726691 0.749377304,48.5290861 0.749377304,47.8806884 L0.749377304,44.3743964 C0.749377304,43.7160836 1.28084427,43.1824157 1.94673951,43.1824157 L1.94673951,40.8263144 C1.28545462,40.8263144 0.749377304,40.2827314 0.749377304,39.6343337 L0.749377304,36.1280416 C0.749377304,35.4697289 1.28084427,34.936061 1.94673951,34.936061 L1.94673951,34.936061 L1.94673951,11.9576243 C1.94673951,6.43092065 6.422416,1.9506421 11.9492373,1.9506421 L67.9023543,1.9506421 C68.1451671,1.26431427 68.7996712,0.77259143 69.563502,0.77259143 L80.4081658,0.77259143 C81.1762803,0.77259143 81.8295888,1.26135422 82.0706966,1.9506421 Z" id="Rectangle-107" fill="#F8F7F2"></path>
                    <g id="glass" transform="translate(6.078297, 28.500184)">
                        <use id="Rectangle-109" fill="#405B69" xlink:href="#path-7"></use>
                        <path d="M3.85524314,-22.378797 L106.495232,196.625861 L109.070183,-52.7766702 L3.85524314,-22.378797 Z" id="Path-603" opacity="0.6" fill="url(#linearGradient-3)"></path>
                    </g>
                    <rect id="Rectangle-110" fill="#D8D8D8" x="40.26233" y="17.2653009" width="19.1577953" height="3.53415202" rx="3"></rect>
                    <ellipse id="Oval-101" fill="#666666" cx="49.2425465" cy="10.7860222" rx="1.7960433" ry="1.76707601"></ellipse>
                    <ellipse id="Oval-102" fill="#FCFCF7" cx="49.2425465" cy="189.849725" rx="7.78285432" ry="7.65732938"></ellipse>
                    <rect id="Rectangle-111" stroke="#EEEDE6" x="46.249141" y="186.904598" width="5.98681102" height="5.89025337" rx="1"></rect>
                    <path d="M59.934,99.947 C59.336,101.271 59.05,101.863 58.282,103.033 C57.209,104.667 55.694,106.706 53.821,106.72 C52.155,106.734 51.725,105.633 49.464,105.651 C47.203,105.662 46.732,106.74 45.064,106.723 C43.191,106.706 41.757,104.869 40.683,103.238 C37.68,98.663 37.363,93.301 39.219,90.448 C40.532,88.425 42.61,87.237 44.561,87.237 C46.548,87.237 47.797,88.329 49.44,88.329 C51.034,88.329 52.005,87.234 54.303,87.234 C56.041,87.234 57.879,88.181 59.192,89.815 C54.896,92.169 55.594,98.305 59.934,99.947 L59.934,99.947 Z M52.559,85.408 C53.395,84.335 54.029,82.821 53.799,81.277 C52.435,81.37 50.84,82.241 49.908,83.369 C49.064,84.396 48.364,85.922 48.637,87.398 C50.125,87.446 51.665,86.559 52.559,85.408 L52.559,85.408 Z" id="Shape" opacity="0.456156716" fill="#FEFEFE"></path>
                </g>
            </g>
        </g>
    </g>
</svg>