<svg viewBox="0 0 31 31" preserveAspectRatio="xMinYMid" version="1.1" xmlns="http://www.w3.org/2000/svg">
    <g stroke="none" stroke-width="1" fill="none" fill-rule="evenodd">
        <g transform="translate(-409.000000, -3793.000000)" fill="#FFFFFF">
            <g transform="translate(192.000000, 3673.000000)">
                <g transform="translate(196.000000, 102.000000)">
                    <g transform="translate(21.000000, 18.000000)">
                        <path d="M2.51875,30.709375 C3.28518421,30.8388 4.19030263,30.6795375 5.15823684,30.1843125 L22.1319605,21.5019875 L17.1939868,16.8326125 L2.51875,30.709375 L2.51875,30.709375 Z"></path>
                        <path d="M0.849644737,1.3775625 C0.425842105,1.950675 0.181921053,2.7392375 0.181921053,3.7107 L0.181921053,27.3602125 C0.181921053,28.3064875 0.412789474,29.0791625 0.815381579,29.6472375 L15.7814474,15.4965125 L0.849644737,1.3775625 L0.849644737,1.3775625 Z"></path>
                        <path d="M22.1001447,9.52165 L5.16109211,0.8815625 C4.22007895,0.4018375 3.33821053,0.23715 2.58646053,0.3472 L17.1939868,14.160025 L22.1001447,9.52165 L22.1001447,9.52165 Z"></path>
                        <path d="M23.9666711,20.56385 L28.8679342,18.0563375 C31.6053158,16.6566875 31.6036842,14.3685 28.8646711,12.9715625 L23.9364868,10.45785 L18.6073421,15.4965125 L23.9666711,20.56385 L23.9666711,20.56385 Z"></path>
                    </g>
                </g>
            </g>
        </g>
    </g>
</svg>