<svg width="100%" viewBox="0 0 405 405" version="1.1" xmlns="http://www.w3.org/2000/svg" xmlns:xlink="http://www.w3.org/1999/xlink">
    <defs>
        <circle id="path-1" cx="202.5" cy="202.5" r="202.5"></circle>
        <path id="path-3" d="M0.31640625,31.1581055 C-0.13578075,15.9517148 0.31640625,2.0906543 0.31640625,2.0906543 L45.0783984,0.268154297 C45.0783984,0.268154297 45.6065544,14.9772857 47.79,31.1581055 C50.0567004,47.9558998 53.2021289,63.1625977 56.9293945,76.0767187 C60.6566602,88.9908398 69.3870996,105.750088 69.3870996,105.750088 C69.3870996,105.750088 72.8394857,106.497993 73.4370996,108.79708 C74.0347135,111.096167 72.6152328,114.554092 67.1690918,116.525303 C61.7229508,118.496514 55.5368131,118.393682 54.3131119,116.552988 C53.0894108,114.712295 55.4628516,112.052109 55.4628516,112.052109 C55.4628516,112.052109 52.3731461,112.052109 51.5793588,109.455996 C50.7855716,106.859883 53.8610449,105.182139 53.8610449,105.182139 C53.8610449,105.182139 45.0942188,85.7816895 42.271084,74.6520996 C39.4479492,63.5225098 37.9608398,59.5626855 36.0667529,47.9474121 C34.172666,36.3321387 33.0976758,30.2120508 31.0149316,28.0715625 C28.9321875,25.9310742 16.4594531,26.4919043 16.4594531,26.4919043 C16.4594531,26.4919043 15.3503178,35.3843561 15.0207389,45.4492898 C14.7696816,53.1162703 15.8880253,67.0453343 18.4512305,81.0577441 C21.0144356,95.070154 26.3906543,107.605811 26.3906543,107.605811 C26.3906543,107.605811 28.9195297,106.859883 29.7295297,109.455996 C30.5395297,112.052109 28.448877,112.992627 28.448877,112.992627 C28.448877,112.992627 32.2987485,112.635879 32.2987485,115.277871 C32.2987485,117.919863 27.7286557,119.951982 23.7708106,120.462583 C19.8129655,120.973184 14.1473145,121.583848 13.2360645,119.348833 C12.3248145,117.113818 15.0656836,116.552988 15.0656836,116.552988 C15.0656836,116.552988 12.0981885,116.552988 11.2881885,114.107959 C10.4781885,111.66293 13.6481836,109.455996 13.6481836,109.455996 C13.6481836,109.455996 7.00517674,93.7949614 4.1765625,76.0767187 C1.34794826,58.3584761 0.733092042,45.1706422 0.31640625,31.1581055 Z"></path>
        <path id="path-5" d="M73.6245703,28.8024609 L54.773877,37.5194531 C54.773877,37.5194531 53.558877,56.5726465 53.558877,64.2676465 C53.558877,71.9626465 54.7651758,89.5801465 54.7651758,89.5801465 C54.7651758,89.5801465 54.5349902,92.9807251 49.9621289,94.6521411 C45.3892676,96.3235571 37.5930176,96.9102002 25.2571289,96.6676489 C12.9212402,96.4250975 8.73360352,93.0977954 8.73360352,93.0977954 C8.73360352,93.0977954 8.66864441,73.8399816 8.73360352,64.2676489 C8.80364441,53.946466 9.96125977,34.1615918 9.96125977,34.1615918 L0.00158203125,27.8840918 C0.00158203125,27.8840918 7.08908203,8.87044919 14.784082,4.59975584 C22.479082,0.3290625 47.2086035,-2.40310524 57.1492969,3.03117196 C67.0899902,8.46544916 73.6245703,28.8024609 73.6245703,28.8024609 Z"></path>
        <path d="M83.419415,42.6778206 C81.4669843,48.9629879 77.7320478,53.0489183 70.9809951,57.1777734 C66.3169752,60.0302267 60.1950571,61.8273154 53.0027688,62.8993363 L52.8374707,77.1706934 C52.8374707,77.1706934 53.0486715,85.2706934 44.7219644,85.2706934 C36.3952572,85.2706934 38.0454785,78.7661719 38.0454785,78.7661719 L39.2236645,64.1078811 L39.2236645,64.1078811 C36.3073201,64.2238772 33.2876044,64.2747656 30.1812004,64.2747656 C12.9781925,64.2747656 5.48964849,58.7977734 1.40326182,49.5547559 C-2.68312486,40.3117383 3.88151367,15.2112305 3.88151367,15.2112305 L50.7128017,0.439013672 L81.9144141,9.80463867 C81.9144141,9.80463867 83.5923802,15.0067786 84.5152279,21.9229248 C84.8242824,21.8879239 85.1377896,21.87 85.455,21.87 C90.5995324,21.87 94.77,26.5844416 94.77,32.4 C94.77,38.2155584 90.5995324,42.93 85.455,42.93 C84.7558042,42.93 84.0746011,42.8429165 83.419415,42.6778206 Z" id="path-7"></path>
        <path id="path-9" d="M3.66873047,0.730898438 L34.0801172,11.6745996 L66.5046387,8.42589844 L66.1083398,41.6358984 L62.6049316,72.8422559 L29.6306543,72.8422559 L4.51195312,65.152793 L0.537099609,36.397793 L3.66873047,0.730898438 Z"></path>
        <path d="M71.6713191,29.565789 C71.7161175,29.5613283 71.7395801,29.5586719 71.7395801,29.5586719 C71.7395801,29.5586719 77.6136616,33.3974707 87.7275879,33.3974707 C97.8415142,33.3974707 104.974892,31.3218457 108.494912,23.2875 C110.191559,19.4149519 110.202841,13.4592769 108.494913,8.79767578 C106.659415,3.78788889 103.282416,0.157510986 103.282416,0.157510986 L91.8286089,5.47086182 C91.8286089,5.47086182 96.3464946,9.68282227 97.3439653,14.3070996 C98.3414361,18.931377 96.2784678,22.8983203 91.6874126,24.0856348 C87.0963574,25.2729492 76.8297656,21.6374414 76.8297656,21.6374414 C76.8297656,21.6374414 76.4254944,21.4762583 75.7434852,21.2398077 C74.9322408,19.2129106 73.4870484,16.7357507 71.0810596,15.7969776 C66.7304736,14.0994579 57.2109961,11.8003709 56.3135889,14.9185547 C55.4161816,18.0367385 57.735835,18.9986133 57.735835,18.9986133 C57.735835,18.9986133 52.7880322,19.6701846 52.7880322,23.0142039 C52.7880322,26.3582232 57.027085,26.6742334 57.027085,26.6742334 C57.027085,26.6742334 54.8913428,27.7425006 56.3135889,30.0502886 C57.7312102,32.3505725 67.7078471,31.7827884 71.6713191,29.565789 L71.6713191,29.565789 Z M11.7485596,14.0998535 C11.7485596,14.0998535 13.7735596,15.9132568 12.7610596,17.8461035 C11.7485596,19.7789502 6.6302929,19.4522608 3.58369622,16.5160108 C0.537099543,13.5797608 0.0581396293,11.4009082 0.739204104,7.509507 C1.42026858,3.61810579 5.01938968,2.2021875 8.82615353,2.2021875 C12.6329174,2.2021875 17.586254,4.4415531 17.0800045,6.97003432 C16.5737551,9.49851554 14.198335,9.16905762 14.198335,9.16905762 C14.198335,9.16905762 16.1897172,10.2756887 15.7214355,12.5103076 C15.2531539,14.7449265 11.7485596,14.0998535 11.7485596,14.0998535 Z" id="path-11"></path>
        <path id="path-13" d="M85.6970508,14.8228418 C85.6970508,14.8228418 81.0585352,2.6728418 61.001543,0.647841797 C40.9445508,-1.3771582 30.2120508,3.65765625 30.2120508,8.3428418 C30.2120508,13.0280273 32.8263574,14.6480273 32.8263574,14.6480273 C32.8263574,14.6480273 -7.03608394,31.8019931 1.4420215,46.3725009 C9.92012693,60.9430087 38.3634668,38.4488965 38.3634668,38.4488965 C38.3634668,38.4488965 35.2634777,43.845997 40.9516711,46.3725009 C46.6398644,48.8990048 61.6936816,37.817666 61.6936816,37.817666 C61.6936816,37.817666 61.860584,42.0140048 66.2823613,42.0140048 C70.7041387,42.0140048 81.5750684,33.9938965 81.5750684,33.9938965 C81.5750684,33.9938965 80.6353398,63.0740048 89.1039531,63.0740048 C97.5725664,63.0740048 93.9180762,47.9663965 93.9180762,47.9663965 C93.9180762,47.9663965 95.829168,51.6976181 99.4037676,49.6726181 C102.978367,47.6476181 102.563084,33.9938974 97.4910918,24.992138 C92.4190996,15.9903787 85.6970508,14.8228418 85.6970508,14.8228418 Z"></path>
    </defs>
    <g stroke="none" stroke-width="1" fill="none" fill-rule="evenodd">
        <g transform="translate(-398.000000, -1623.000000)">
            <g transform="translate(398.000000, 1623.000000)">
                <g>
                    <mask id="mask-2" fill="white">
                        <use xlink:href="#path-1"></use>
                    </mask>
                    <use id="Oval-11" fill="#5CC6E4" xlink:href="#path-1"></use>
                    <ellipse id="Oval-13" fill="#44B282" mask="url(#mask-2)" cx="202.095" cy="399.33" rx="247.455" ry="83.43"></ellipse>
                </g>
                <path d="M232.953311,341.823955 C227.476318,342.836455 228.093311,356.5408 228.093311,359.789501 C228.093311,363.038202 229.544825,370.125704 235.610332,370.125703 C241.675839,370.125703 243.305331,364.682724 243.305332,359.789502 C243.305333,354.89628 238.430303,340.811455 232.953311,341.823955 Z" id="Path-70" fill="#30323A"></path>
                <path d="M193.655811,349.510254 C198.120303,351.948955 201.332618,358.51043 192.027109,362.911641 C182.7216,367.312852 174.650869,367.387207 172.81334,362.911641 C170.975811,358.436074 173.496777,354.478623 180.112832,353.466123 C186.728886,352.453623 189.191318,347.071553 193.655811,349.510254 Z" id="Path-71" fill="#30323A"></path>
                <path d="M181.203643,362.306201 C184.14622,361.871143 185.34896,360.281201 184.911924,358.06873 C184.474888,355.85626 182.512779,355.444932 179.605,355.444932 C176.697221,355.444932 174.444414,358.256201 175.134971,360.281201 C175.825527,362.306201 178.261065,362.74126 181.203643,362.306201 Z" id="Oval-35" fill="#464952"></path>
                <path d="M237.326488,366.790781 C240.562977,366.790781 241.46622,363.944104 241.46622,361.26 C241.46622,358.575896 240.217207,356.458535 237.77811,356.458535 C235.339013,356.458535 234.09,358.601396 234.09,361.26 C234.09,363.918604 234.09,366.790781 237.326488,366.790781 Z" id="Oval-36" fill="#464952"></path>
                <g id="Path-69" transform="translate(168.480000, 233.280000)">
                    <mask id="mask-4" fill="white">
                        <use xlink:href="#path-3"></use>
                    </mask>
                    <use fill="#4F818F" xlink:href="#path-3"></use>
                    <path d="M29.9525977,8.85779268 C29.9525977,8.85779268 14.985,7.64279268 9.10379883,18.3752927 C3.22259766,29.1077927 3.81981445,55.9904587 7.90620117,77.1952146 C11.9925879,98.3999704 23.7375879,124.123008 23.7375879,124.123008 L-13.6038867,122.061621 L-8.84039062,-15.2333792 L29.9525977,8.85779268 Z" id="Path-100" fill="#2F5964" mask="url(#mask-4)"></path>
                    <path d="M16.4885229,26.5010998 C16.4885229,26.5010998 31.1762988,22.0728955 34.02,25.7178955 C36.8637012,29.3628955 38.1079687,47.0793737 45.1867676,72.4256401 C52.2655664,97.7719066 67.2687598,121.666907 67.2687598,121.666907 L49.7461816,120.094365 L16.4885229,26.5010998 Z" id="Path-101" fill="#2F5964" mask="url(#mask-4)"></path>
                </g>
                <g id="Path-68" transform="translate(159.570000, 146.610000)">
                    <mask id="mask-6" fill="white">
                        <use xlink:href="#path-5"></use>
                    </mask>
                    <use fill="#FF9782" xlink:href="#path-5"></use>
                    <path d="M62.2956445,0.94921875 C62.2956445,0.94921875 42.7729108,1.83663305 34.2636328,19.844209 C25.7543548,37.8517849 25.5442676,56.9602441 24.2383008,71.7063574 C22.932334,86.4524707 24.2383008,102.090059 24.2383008,102.090059 L-9.67253906,98.4213281 L-9.67253906,-10.5600586 L62.2956445,0.94921875 Z" id="Path-95" fill="#DD7A66" mask="url(#mask-6)"></path>
                    <path d="M32.8168652,60.2349044 C32.8168652,60.2349044 40.8203613,65.6479687 47.1888281,66.9048926 C53.5572949,68.1618164 60.9643652,66.9048926 60.9643652,66.9048926 L60.9643652,58.6205859 L31.6018652,51.5330859 L32.8168652,60.2349044 Z" id="Path-99" fill="#DD7A66" mask="url(#mask-6)"></path>
                </g>
                <path d="M214.561406,62.0251172 C214.561406,62.0251172 221.858446,60.2292363 228.721377,64.243916 C235.584308,68.2585958 241.479499,72.9020244 244.718877,83.4525439 C247.958255,94.0030635 242.639297,104.003525 242.639297,104.003525 L222.356074,88.9853027 L214.561406,62.0251172 Z" id="Path-73" fill="#D47B4E"></path>
                <g id="Path-66" transform="translate(149.040000, 70.470000)">
                    <mask id="mask-8" fill="white">
                        <use xlink:href="#path-7"></use>
                    </mask>
                    <use fill="#F5DAC3" xlink:href="#path-7"></use>
                    <path d="M23.2194727,7.90145508 C23.2194727,7.90145508 2.31609375,27.5684766 7.17609375,45.5941406 C12.0360938,63.6198047 39.3561914,66.6359473 65.3141602,58.5359473 C91.2721289,50.4359473 99.3436523,34.0334473 99.3436523,34.0334473 L86.3994727,60.9809766 C86.3994727,60.9809766 61.004707,70.471582 26.5923633,70.471582 C-7.81998047,70.471582 -26.6508984,51.2783789 -26.6508984,51.2783789 L-20.9808984,4.29837891 L23.2194727,7.90145508 Z" id="Path-96" fill="#DEBDA0" mask="url(#mask-8)"></path>
                    <path d="M88.2496582,27.3375 C88.2496582,27.3375 81.6719678,25.9306008 81.6719678,32.7895362 C81.6719678,39.6484716 87.6239648,38.4504785 87.6239648,38.4504785 C87.6239648,38.4504785 85.9691602,37.6986183 85.9691602,32.7895364 C85.9691602,27.8804544 88.2496582,27.3375 88.2496582,27.3375 Z" id="Path-97" fill="#DEBDA0" mask="url(#mask-8)"></path>
                </g>
                <g id="Path-76" transform="translate(134.460000, 158.760000)">
                    <mask id="mask-10" fill="white">
                        <use xlink:href="#path-9"></use>
                    </mask>
                    <use fill="#E4E2DA" xlink:href="#path-9"></use>
                    <path d="M-13.971709,35.2895801 C-13.971709,35.2895801 22.8745898,37.5352734 27.4664355,43.74 C32.0582812,49.9447266 28.5445898,81.6802734 28.5445898,81.6802734 L-14.3854102,76.6177734 L-13.971709,35.2895801 Z" id="Path-105" fill="#D9D5CE" mask="url(#mask-10)"></path>
                    <path d="M-1.01645508,-11.0560254 L33.1364355,2.80810547 C33.1364355,2.80810547 32.7496289,37.5803613 27.8896289,39.436084 C23.0296289,41.2918066 -5.46591797,31.4729297 -5.46591797,31.4729297 L-1.01645508,-11.0560254 Z" id="Path-106" fill="#D9D5CE" mask="url(#mask-10)"></path>
                    <path d="M73.7954297,-1.23319336 L35.994375,4.65829102 C35.994375,4.65829102 30.3133007,33.8127539 32.7345996,40.2682324 C35.1558985,46.7237109 73.7954295,38.322334 73.7954295,38.322334 L73.7954297,-1.23319336 Z" id="Path-107" fill="#F1EBE0" mask="url(#mask-10)"></path>
                    <path d="M67.8074414,80.644834 L31.1549414,78.8128418 C31.1549414,78.8128418 29.31583,51.8384181 32.5139062,46.3432325 C35.7119824,40.8480469 71.0229199,45.3821484 71.0229199,45.3821484 L67.8074414,80.644834 Z" id="Path-108" fill="#F1EBE0" mask="url(#mask-10)"></path>
                </g>
                <g id="Path-67" transform="translate(128.790000, 175.770000)">
                    <mask id="mask-12" fill="white">
                        <use xlink:href="#path-11"></use>
                    </mask>
                    <use fill="#F5DAC3" xlink:href="#path-11"></use>
                    <path d="M14.5728809,-8.83643555 C14.5728809,-8.83643555 0.193798828,-0.519697266 6.24665039,11.2110645 C12.299502,22.9418262 30.3892383,9.59976563 30.3892383,9.59976563 L7.24649414,26.5820801 L-10.0016016,9.59976563 L14.5728809,-8.83643555 Z" id="Path-102" fill="#DEBDA0" mask="url(#mask-12)"></path>
                    <path d="M55.6214502,8.7173877 C55.6214502,8.7173877 49.4404541,20.2401123 55.6214502,24.099873 C61.8024463,27.9596338 71.3005664,24.7465283 71.3005664,24.7465283 C71.3005664,24.7465283 76.2681438,31.8008057 86.6225391,32.8133057 C96.9769343,33.8258057 106.738066,30.2500195 106.738066,30.2500195 L96.3828809,53.7400195 L31.9696875,30.2500195 L48.7771875,5.14001953 L55.6214502,8.7173877 Z" id="Path-103" fill="#DEBDA0" mask="url(#mask-12)"></path>
                    <path d="M84.9859277,5.40817383 L96.4797803,-1.48236328 C96.4797803,-1.48236328 103.809727,7.30898437 100.98501,15.5331738 C98.160293,23.7573633 91.0197949,23.7573633 91.0197949,23.7573633 L84.9859277,5.40817383 Z" id="Path-104" fill="#DEBDA0" mask="url(#mask-12)"></path>
                </g>
                <g id="Path-72" transform="translate(132.840000, 46.980000)">
                    <mask id="mask-14" fill="white">
                        <use xlink:href="#path-13"></use>
                    </mask>
                    <use fill="#D47B4E" xlink:href="#path-13"></use>
                    <path d="M84.2574023,11.0995312 C84.2574023,11.0995312 75.8133105,4.62823242 64.5571582,3.61256836 C53.3010059,2.5969043 41.6188931,5.48941689 40.4968359,8.88626953 C38.4718359,15.0166406 43.0747559,12.9734473 43.0747559,17.1832324 C43.0747559,21.3930176 27.0021094,22.4419043 28.2258105,30.119502 C29.4495117,37.7970996 37.918916,31.2174316 40.4968359,32.9806055 C43.0747559,34.7437793 40.4327637,38.1253711 45.2358105,40.1685645 C50.0388574,42.2117578 59.6417871,30.9445312 63.4703027,32.9806055 C67.2988184,35.0166797 65.6187012,36.1098633 69.66,36.1098633 C73.7012988,36.1098633 82.8454395,28.4599512 84.2574023,30.119502 C85.6693652,31.7790527 82.8343652,42.6650098 88.1175586,56.2633594 C93.400752,69.861709 106.158252,67.1746289 106.158252,67.1746289 L34.7192578,82.8272461 L-34.1497266,51.2372461 L15.2602734,-22.4063086 L83.3002734,-25.2239062 L84.2574023,11.0995312 Z" id="Path-98" fill="#B86236" mask="url(#mask-14)"></path>
                </g>
                <path d="M191.082039,115.891416 C190.581953,116.395934 188.817302,118.007652 186.10106,118.665 C182.860269,119.449292 178.438491,119.884351 178.438491,119.884351 C178.438491,119.884351 184.223188,121.061777 188.494277,120.378735 C192.609274,119.720656 193.686291,118.011858 193.759517,117.887837 C196.787991,119.075185 200.849941,118.511938 200.849941,118.511938 C200.849941,118.511938 195.607485,117.77651 193.314727,115.947772 C191.021968,114.119033 190.690137,113.250103 190.690137,113.250103 C190.690137,113.250103 190.155547,114.501977 191.082039,115.891416 Z" id="Path-63" fill="#30323A"></path>
                <ellipse id="Oval-27" fill="#30323A" cx="169.695" cy="98.82" rx="3.645" ry="5.67"></ellipse>
                <ellipse id="Oval-28" fill="#30323A" cx="196.425" cy="98.01" rx="3.645" ry="5.67"></ellipse>
                <path d="M218.731245,60.7725441 C218.731245,60.7725441 220.420854,58.0708302 219.964438,55.2793361 C219.508022,52.487842 217.302689,51.188139 215.76375,48.6593263 C214.655147,46.8376501 214.311485,44.6320814 215.106416,43.0233398 C217.004854,39.1813771 224.142979,41.439727 224.142978,49.3704494 C224.142977,57.3011719 218.731245,60.7725441 218.731245,60.7725441 Z M222.254033,59.3479248 C222.254033,59.3479248 226.600269,53.1475488 231.064365,53.1475488 C235.528462,53.1475488 235.93188,55.4248828 235.93188,56.7245215 C235.93188,58.0241602 234.51873,59.5429102 231.915103,59.5429102 C229.311475,59.5429102 228.510176,58.5636328 226.630327,58.5636328 C224.750479,58.5636328 222.254033,59.3479248 222.254033,59.3479248 Z" id="Path-74" fill="#D47B4E"></path>
            </g>
        </g>
    </g>
</svg>