<svg width="100%" viewBox="0 0 405 405" version="1.1" xmlns="http://www.w3.org/2000/svg" xmlns:xlink="http://www.w3.org/1999/xlink">
    <defs>
        <circle id="path-1" cx="202.5" cy="202.5" r="202.5"></circle>
        <path id="path-3" d="M0.542968976,53.4688699 C-0.23300657,27.3739417 0.542968976,3.58766751 0.542968976,3.58766751 L77.35679,0.460166207 C77.35679,0.460166207 78.2631321,25.7017727 82.0100341,53.4688699 C85.8998055,82.2947265 1.25802267,77.515085 0.542968976,53.4688699 Z"></path>
        <path id="path-5" d="M130.393451,52.6664659 L98.0447169,67.6252612 C98.0447169,67.6252612 95.959716,100.321496 95.959716,113.526501 C95.959716,126.731506 98.0297852,156.964019 98.0297852,156.964019 C98.0297852,156.964019 94.4721048,161.759075 86.6248457,164.627308 C78.7775865,167.495542 65.4955082,169.432147 48.4363571,168.291317 C31.377206,167.150488 19.0373012,163.000481 19.0373012,163.000481 C19.0373012,163.000481 17.0725457,119.795635 17.1840188,103.369033 C17.3042125,85.6573659 21.8850849,47.2353228 21.8850849,47.2353228 L0.597564388,26.5852574 C0.597564388,26.5852574 11.1797768,13.4808041 27.6293399,4.90974274 C44.0789031,-3.66131865 85.6205401,1.86813322 102.679268,11.1936251 C119.737996,20.5191171 130.393451,52.6664659 130.393451,52.6664659 Z"></path>
        <path id="path-7" d="M272.16,24.3 L51.84,0 L0,38.88 L213.84,72.09 L272.16,24.3 Z"></path>
        <path id="path-9" d="M61.515011,20.9742737 C61.515011,20.9742737 51.5235937,30.0396094 35.0127246,27.2742188 C18.5018555,24.5088281 0.228603516,0.150292969 0.228603516,0.150292969 L8.63393555,32.6096191 C8.63393555,32.6096191 14.6717578,43.7819238 37.0812305,46.5196289 C59.4907031,49.257334 80.3499829,33.7274231 80.3499829,33.7274231 L61.515011,20.9742737 Z"></path>
        <path d="M143.151895,72.7572713 C139.801426,83.5429331 133.392088,90.5545945 121.806944,97.6399167 C113.803252,102.534869 103.297734,105.618764 90.9554066,107.458405 L90.6717467,131.948769 C90.6717467,131.948769 91.034178,145.848775 76.7451313,145.848775 C62.4560847,145.848775 65.2879471,134.68669 65.2879471,134.68669 L67.3097733,109.532329 L67.3097733,109.532329 C62.3051801,109.731384 57.1231967,109.818711 51.7924518,109.818711 C22.2712286,109.818711 9.42051183,100.419918 2.40806757,84.5584367 C-4.60437668,68.6969555 6.66087191,25.6232266 6.66087191,25.6232266 L74.1748699,0.753464149 L140.569238,16.3452442 C140.569238,16.3452442 143.448712,25.2723769 145.032365,37.1408302 C145.562718,37.0807671 146.100712,37.0500087 146.645061,37.0500087 C155.473336,37.0500087 162.630068,45.1402266 162.630068,55.1200162 C162.630068,65.0998058 155.473336,73.1900237 146.645061,73.1900237 C145.445206,73.1900237 144.276227,73.040584 143.151895,72.7572713 Z" id="path-11"></path>
        <path d="M37.0444419,67.4277411 C41.3812542,68.2585552 56.0591655,70.5228125 69.0413807,66.117055 C84.4761596,60.8789743 91.2013858,50.39656 94.1311161,35.7408769 C97.0608464,21.0851937 89.4122877,0.423806834 89.4122877,0.423806834 L67.5209117,6.20343726 C67.5209117,6.20343726 82.2840782,23.2077503 73.8737189,41.2949529 C65.4633596,59.3821555 35.7749158,50.6772798 35.7749158,50.6772798 C35.7749158,50.6772798 35.6047422,50.6385811 35.2942459,50.5788345 C34.2072415,49.6025791 32.9446105,48.6685251 31.4802022,47.8358855 C22.9350489,42.9772452 8.35765462,39.6900277 6.81765886,45.0409872 C5.2776631,50.3919468 9.25830441,52.0425722 9.25830441,52.0425722 C9.25830441,52.0425722 0.767627033,53.1950221 0.767627045,58.9335268 C0.767627058,64.6720315 8.0420539,65.2143208 8.0420539,65.2143208 C8.0420539,65.2143208 4.37701331,67.0475208 6.81765886,71.0078007 C9.25830441,74.9680807 26.4826378,73.9744475 33.2385292,70.1390504 C34.7463315,69.2830537 36.0025748,68.3542364 37.0444419,67.4277411 Z" id="path-13"></path>
        <path id="path-15" d="M141.154972,25.4367391 C141.154972,25.4367391 133.195047,4.58673043 98.7762435,1.11172898 C64.3574401,-2.36327247 47.6354656,5.84638172 45.9399324,14.3167345 C44.2443993,22.7870872 50.4262136,25.1367487 50.4262136,25.1367487 C50.4262136,25.1367487 -7.78791012,44.9366663 1.87456906,71.1563959 C11.5370482,97.3761254 58.8735599,69.0104016 58.8735599,69.0104016 C58.8735599,69.0104016 56.1049203,79.1196677 67.7989138,80.7162047 C79.4929073,82.3127417 99.9639881,64.8970094 99.9639881,64.8970094 C99.9639881,64.8970094 101.005998,73.3814555 110.094812,73.3814555 C119.183627,73.3814555 134.081444,58.3352294 134.081444,58.3352294 C134.081444,58.3352294 130.995776,103.55147 144.042089,107.214534 C157.088402,110.877599 155.262664,82.3127394 155.262664,82.3127394 C155.262664,82.3127394 157.866609,88.558205 164.606649,86.3579416 C171.346689,84.1576783 170.09793,58.3352309 161.394137,42.8877609 C152.690345,27.4402908 141.154972,25.4367391 141.154972,25.4367391 Z"></path>
    </defs>
    <g stroke="none" stroke-width="1" fill="none" fill-rule="evenodd">
        <g transform="translate(-398.000000, -2389.000000)">
            <g transform="translate(398.000000, 2389.000000)">
                <g>
                    <mask id="mask-2" fill="white">
                        <use xlink:href="#path-1"></use>
                    </mask>
                    <use id="Oval-11" fill="#5CC6E4" xlink:href="#path-1"></use>
                    <g id="Path-69" mask="url(#mask-2)">
                        <g transform="translate(290.025049, 396.453034) rotate(-10.000000) translate(-290.025049, -396.453034) translate(248.525049, 359.453034)">
                            <mask id="mask-4" fill="white">
                                <use xlink:href="#path-3"></use>
                            </mask>
                            <use id="Path-69" stroke="none" fill="#4F818F" fill-rule="evenodd" xlink:href="#path-3"></use>
                            <path d="M51.4001581,15.200416 C51.4001581,15.200416 25.7150107,13.1154151 15.6225749,31.5329228 C5.53013902,49.9504305 6.55499296,96.0824321 13.5674373,132.470855 C20.5798816,168.859279 40.73489,213.001299 40.73489,213.001299 L-23.3449511,209.463857 L-15.1705532,-26.1412418 L51.4001581,15.200416 Z" id="Path-100" stroke="none" fill="#2F5964" fill-rule="evenodd" mask="url(#mask-4)"></path>
                            <path d="M28.2951314,45.4772149 C28.2951314,45.4772149 53.5000906,37.8781945 58.3800243,44.1331971 C63.259958,50.3881997 65.3951835,80.7905638 77.5427569,124.286027 C89.6903303,167.78149 115.436562,208.786507 115.436562,208.786507 L85.3669398,206.087947 L28.2951314,45.4772149 Z" id="Path-101" stroke="none" fill="#2F5964" fill-rule="evenodd" mask="url(#mask-4)"></path>
                        </g>
                    </g>
                    <g id="Path-68" mask="url(#mask-2)">
                        <g transform="translate(276.207872, 292.954931) rotate(-10.000000) translate(-276.207872, -292.954931) translate(211.002872, 208.309931)">
                            <mask id="mask-6" fill="white">
                                <use xlink:href="#path-5"></use>
                            </mask>
                            <use id="Path-68" stroke="none" fill="#FF9782" fill-rule="evenodd" xlink:href="#path-5"></use>
                            <path d="M110.952447,4.86890693 C110.952447,4.86890693 62.6126925,10.458168 45.6223072,51.0770567 C28.631922,91.6959455 34.1835662,176.571012 34.1835662,176.571012 L-12.5485616,172.13593 L-12.5485616,-14.8815896 L110.952447,4.86890693 Z" id="Path-95" stroke="none" fill="#DD7A66" fill-rule="evenodd" mask="url(#mask-6)"></path>
                            <path d="M68.6921714,147.15629 C68.6921714,147.15629 85.1708921,144.583062 94.6917275,138.707259 C104.212563,132.831455 112.084931,122.58515 112.084931,122.58515 L102.330924,112.188017 L56.912505,137.657131 L68.6921714,147.15629 L68.6921714,147.15629 Z" id="Path-99" stroke="none" fill="#DD7A66" fill-rule="evenodd" mask="url(#mask-6)"></path>
                        </g>
                    </g>
                    <g id="Group" mask="url(#mask-2)">
                        <g transform="translate(-55.000000, 172.000000)">
                            <g id="Path-134" stroke-width="1" fill="none" transform="translate(73.630000, 124.460000)">
                                <mask id="mask-8" fill="white">
                                    <use xlink:href="#path-7"></use>
                                </mask>
                                <use fill="#A37E6B" xlink:href="#path-7"></use>
                                <path d="M147.229884,84.8059901 C202.842404,90.6163091 249.200567,83.2649899 250.773738,68.3863589 C252.346909,53.5077279 208.539361,36.7360201 152.926841,30.925701 C97.3143208,25.1153819 50.9561582,32.4667012 49.3829869,47.3453322 C47.8098157,62.2239631 91.6173637,78.995671 147.229884,84.8059901 L147.229884,84.8059901 Z" id="Oval-41" fill="#F9FFBF" mask="url(#mask-8)"></path>
                            </g>
                            <path d="M265.6,181.16 L345.79,148.76 L345.79,259.73 L265.6,259.73 L265.6,181.16 Z" id="Path-144" fill="#C99A82"></path>
                            <path d="M265.6,181.16 L265.6,266.21 L69.58,266.21 L69.58,113.12 L265.6,181.16 Z" id="Path-143" fill="#B68C75"></path>
                            <path d="M0.587530155,0.53 L203.964069,24.83 L210.452062,118.79 L265.6,181.16 L62.850228,156.86 L0.587530155,0.53 L0.587530155,0.53 Z" id="Rectangle-1" fill="#A37E6B"></path>
                        </g>
                    </g>
                </g>
                <g id="Path-135" transform="translate(143.370000, 227.610000)">
                    <mask id="mask-10" fill="white">
                        <use xlink:href="#path-9"></use>
                    </mask>
                    <use fill="#F5DAC3" xlink:href="#path-9"></use>
                    <path d="M26.0932324,0.343300781 C26.0932324,0.343300781 23.5604004,32.5906348 42.7456934,38.1554297 C61.9309863,43.7202246 79.5935742,36.0987891 79.5935742,36.0987891 L59.13,75.6558984 L-27.4071094,41.8589648 L26.0932324,0.343300781 Z" id="Path-138" fill="#DEBDA0" mask="url(#mask-10)"></path>
                </g>
                <g id="Group" transform="translate(131.000000, 27.000000)">
                    <path d="M158.941996,36.602774 C173.473836,39.9711729 184.177198,48.283763 191.899145,64.2978817 C199.621091,80.3120003 194.524415,99.6483097 194.524415,99.6483097 L155.536996,80.3119989 L134.202321,37.0725647 C134.202321,37.0725647 144.410157,33.234375 158.941996,36.602774 Z" id="Path-73" fill="#D47B4E"></path>
                    <g id="Path-66" transform="translate(123.342667, 129.397117) rotate(-10.000000) translate(-123.342667, -129.397117) translate(41.937667, 56.092117)">
                        <mask id="mask-12" fill="white">
                            <use xlink:href="#path-11"></use>
                        </mask>
                        <use fill="#F5DAC3" xlink:href="#path-11"></use>
                        <path d="M39.8457783,13.0792858 C39.8457783,13.0792858 4.58023519,49.9184223 12.9202387,80.8513648 C21.2602421,111.784307 67.5371961,113.870617 112.082371,99.9706111 C156.627546,86.0706053 170.478684,57.9230935 170.478684,57.9230935 L148.265823,104.166404 C148.265823,104.166404 109.699451,120.257737 50.6461447,120.257737 C-8.40716116,120.257737 -45.7342769,87.5162602 -45.7342769,87.5162602 L-36.0042728,6.89622659 L39.8457783,13.0792858 Z" id="Path-96" fill="#DEBDA0" mask="url(#mask-12)"></path>
                        <path d="M150.850615,46.613224 C150.850615,46.613224 139.295386,45.5925284 140.736994,57.2750713 C142.178602,68.9576143 152.11529,65.6723575 152.11529,65.6723575 C152.11529,65.6723575 149.12461,64.7378207 148.092822,56.376383 C147.061033,48.0149453 150.850615,46.613224 150.850615,46.613224 L150.850615,46.613224 Z" id="Path-97" fill="#DEBDA0" mask="url(#mask-12)"></path>
                    </g>
                    <path d="M79.6,326.16 C79.6,326.16 31.5331444,325.845176 8.90693357,269.14043 C-13.7192772,212.435684 18.04,169.83 18.04,169.83 L79.6,326.16 Z" id="Path-134" fill="#C99A82"></path>
                    <path d="M109.544847,151.854298 C113.272234,150.998926 115.678348,147.65535 114.919052,144.386212 C114.159756,141.117074 110.522581,139.16033 106.795194,140.015702 C103.067806,140.871074 100.661692,144.21465 101.420988,147.483788 C102.180284,150.752926 105.817459,152.70967 109.544847,151.854298 L109.544847,151.854298 Z" id="Oval-42" fill="#DEBDA0"></path>
                    <path d="M109.544847,151.854298 C113.272234,150.998926 115.678348,147.65535 114.919052,144.386212 C114.159756,141.117074 110.522581,139.16033 106.795194,140.015702 C109.965721,140.326897 111.892582,142.423726 112.32845,144.980711 C112.764317,147.537697 111.842891,150.777202 109.544847,151.854298 L109.544847,151.854298 Z" id="Oval-43" fill="#30323A"></path>
                    <path d="M102.74759,284.029996 C102.74759,284.029996 102.393603,289.143877 99.6284109,290.637675 C96.8632193,292.131474 92.2519454,291.611698 92.2519454,291.611698 C92.2519454,291.611698 97.2778145,292.297018 98.5620288,294.940393 C99.846243,297.583769 99.3558134,302.231975 99.3558134,302.231975 C99.3558134,302.231975 100.487363,297.469932 102.74759,295.765027 C105.007818,294.060123 110.79848,294.060123 110.79848,294.060123 C110.79848,294.060123 104.910832,293.500243 103.589768,290.637675 C102.268704,287.775108 102.74759,284.029996 102.74759,284.029996 Z" id="Path-139" fill="#F9FFBF"></path>
                    <path d="M129.68741,281.892736 C129.68741,281.892736 129.148628,285.722886 126.975853,286.701614 C124.803078,287.680342 121.339138,287.04647 121.339138,287.04647 C121.339138,287.04647 125.277915,287.769844 126.135752,290.01404 C126.99359,292.258235 126.295379,296.374461 126.295379,296.374461 C126.295379,296.374461 127.611222,292.207399 129.692628,290.927146 C131.774035,289.646893 135.252149,289.865255 135.252149,289.865255 C135.252149,289.865255 130.823917,289.134027 129.975224,286.910092 C129.126531,284.686158 129.68741,281.892736 129.68741,281.892736 L129.68741,281.892736 Z" id="Path-141" fill="#F9FFBF"></path>
                    <path d="M79.2874588,268.557183 C79.2874588,268.557183 79.9231471,271.795745 78.4438613,273.185203 C76.9645756,274.57466 74.5639919,274.984941 74.5639919,274.984941 C74.5639919,274.984941 77.3726399,274.515757 78.6917969,276.089309 C80.0109538,277.66286 80.929121,280.279605 80.929121,280.279605 C80.929121,280.279605 80.1609841,277.155687 81.4819963,275.642869 C82.8030086,274.130051 85.1414384,273.297112 85.1414384,273.297112 C85.1414384,273.297112 82.9030791,273.965916 81.3321892,272.776426 C79.7612993,271.586936 79.2874588,268.557183 79.2874588,268.557183 L79.2874588,268.557183 Z" id="Path-140" fill="#F9FFBF"></path>
                    <g id="Path-67" transform="translate(175.613409, 272.693381) rotate(-20.000000) translate(-175.613409, -272.693381) translate(127.823409, 235.838381)">
                        <mask id="mask-14" fill="white">
                            <use xlink:href="#path-13"></use>
                        </mask>
                        <use fill="#F5DAC3" xlink:href="#path-13"></use>
                        <path d="M3.92468996,41.1572096 C3.92468996,41.1572096 -0.511439993,44.387084 5.01277521,54.801194 C10.5369904,65.215304 32.5360631,61.9062823 32.5360631,61.9062823 C32.5360631,61.9062823 43.6308563,68.5885006 63.1914306,66.5830566 C82.7520049,64.5776126 97.6615618,47.2458515 97.6615618,47.2458515 L75.5785713,111.660566 L-34.9576954,71.350549 L-6.11518344,28.260531 L3.92468996,41.1572096 Z" id="Path-103" fill="#DEBDA0" mask="url(#mask-14)"></path>
                        <path d="M47.4213368,2.84111597 L78.8754242,-3.52851561 C78.8754242,-3.52851561 88.6639289,23.0653408 80.1464967,38.6241732 C71.6290645,54.1830056 55.478788,51.3124717 55.478788,51.3124717 L47.4213368,2.84111597 Z" id="Path-140" fill="#DEBDA0" mask="url(#mask-14)"></path>
                    </g>
                    <path d="M75.6517809,124.725335 C79.0743767,124.12546 81.0879142,119.349076 80.1491426,114.056982 C79.2103711,108.764888 75.6747842,104.961094 72.2521884,105.560969 C68.8295925,106.160844 66.8160551,110.937228 67.7548266,116.229322 C68.6935982,121.521416 72.229185,125.32521 75.6517809,124.725335 L75.6517809,124.725335 Z" id="Oval-27" fill="#30323A"></path>
                    <path d="M120.854778,115.391207 C124.277374,114.791332 126.290912,110.014947 125.35214,104.722854 C124.413368,99.4307599 120.877782,95.626965 117.455186,96.22684 C114.03259,96.826715 112.019052,101.603099 112.957824,106.895193 C113.896596,112.187287 117.432182,115.991082 120.854778,115.391207 L120.854778,115.391207 Z" id="Oval-28" fill="#30323A"></path>
                    <path d="M146.916294,33.7131759 C146.916294,33.7131759 148.978994,28.6438501 147.366149,24.0622893 C145.753304,19.4807286 141.614204,17.9414223 138.239623,14.1263677 C135.808683,11.3781237 134.563192,7.75316556 135.432437,4.79754473 C137.508351,-2.26100676 150.321478,-0.571524531 152.69901,12.8312336 C155.076541,26.2339917 146.916294,33.7131759 146.916294,33.7131759 L146.916294,33.7131759 Z M152.478587,30.2558466 C152.478587,30.2558466 158.009175,18.4822085 165.598945,17.1519569 C173.188715,15.8217053 174.557315,19.5501388 174.946931,21.7465014 C175.336547,23.9428641 173.38924,26.9306233 168.962603,27.7064757 C164.535965,28.4823281 162.880037,27.0661478 159.683955,27.6263219 C156.487873,28.1864961 152.478587,30.2558466 152.478587,30.2558466 L152.478587,30.2558466 Z" id="Path-74" fill="#D47B4E"></path>
                    <g id="Path-72" transform="translate(94.393332, 73.479579) rotate(-10.000000) translate(-94.393332, -73.479579) translate(9.893332, 19.479579)">
                        <mask id="mask-16" fill="white">
                            <use xlink:href="#path-15"></use>
                        </mask>
                        <use fill="#D47B4E" xlink:href="#path-15"></use>
                        <path d="M138.684463,19.0473517 C138.684463,19.0473517 124.193979,7.9422787 104.877857,6.19934828 C85.561736,4.45641787 65.7275279,8.30292911 63.7795298,14.1276649 C61.6067988,20.6243777 66.5419489,20.2671296 66.5419489,25.9645909 C66.5419489,31.6620522 39.1737278,44.8407113 42.6353943,55.9269116 C46.0970609,67.0131119 60.602376,57.4569791 65.0262157,60.4826737 C69.4500555,63.5083683 65.0262157,68.3703371 71.844466,70.8871489 C78.6627163,73.4039607 96.0084082,57.9291128 101.575806,59.0853247 C107.143204,60.2415365 107.312867,64.8127798 113.96639,64.8127781 C120.619913,64.8127763 134.618986,50.2508475 137.041985,53.0987197 C139.464984,55.946592 136.24246,73.2152942 145.308685,96.5507433 C154.374909,119.886192 176.267418,115.275028 176.267418,115.275028 L53.6745255,142.135704 L-64.5081018,87.9256811 L20.2819335,-38.450348 L137.041982,-43.2854868 L138.684463,19.0473517 Z" id="Path-98" fill="#B86236" mask="url(#mask-16)"></path>
                    </g>
                </g>
            </g>
        </g>
    </g>
</svg>