<svg width="100%" viewBox="0 0 405 405" version="1.1" xmlns="http://www.w3.org/2000/svg" xmlns:xlink="http://www.w3.org/1999/xlink">
    <defs>
        <circle id="path-1" cx="202.5" cy="202.5" r="202.5"></circle>
        <path id="path-3" d="M129.77877,1.49818362 C129.77877,1.49818362 112.66752,-3.34125084 99.1854492,6.76001945 C85.7033789,16.8612897 81.6486328,37.9212879 57.4688672,54.9566016 C33.2891016,71.9919152 0.740390625,73.6119141 0.740390625,73.6119141 C0.740390625,73.6119141 20.5853906,120.509648 71.7071484,125.787306 C122.828906,131.064963 129.917988,119.743947 153.904746,117.859747 C177.891504,115.975548 185.714648,125.787306 185.714648,125.787306 C185.714648,125.787306 180.262969,73.6119152 164.61668,38.0921496 C148.970391,2.57238399 129.77877,1.49818362 129.77877,1.49818362 Z"></path>
        <path id="path-5" d="M0.31640625,31.1581055 C-0.13578075,15.9517148 0.31640625,2.0906543 0.31640625,2.0906543 L45.0783984,0.268154297 C45.0783984,0.268154297 45.6065544,14.9772857 47.79,31.1581055 C50.0567004,47.9558998 53.2021289,63.1625977 56.9293945,76.0767187 C60.6566602,88.9908398 69.3870996,105.750088 69.3870996,105.750088 C69.3870996,105.750088 72.8394857,106.497993 73.4370996,108.79708 C74.0347135,111.096167 72.6152328,114.554092 67.1690918,116.525303 C61.7229508,118.496514 55.5368131,118.393682 54.3131119,116.552988 C53.0894108,114.712295 55.4628516,112.052109 55.4628516,112.052109 C55.4628516,112.052109 52.3731461,112.052109 51.5793588,109.455996 C50.7855716,106.859883 53.8610449,105.182139 53.8610449,105.182139 C53.8610449,105.182139 45.0942188,85.7816895 42.271084,74.6520996 C39.4479492,63.5225098 37.9608398,59.5626855 36.0667529,47.9474121 C34.172666,36.3321387 33.0976758,30.2120508 31.0149316,28.0715625 C28.9321875,25.9310742 16.4594531,26.4919043 16.4594531,26.4919043 C16.4594531,26.4919043 15.3503178,35.3843561 15.0207389,45.4492898 C14.7696816,53.1162703 15.8880253,67.0453343 18.4512305,81.0577441 C21.0144356,95.070154 26.3906543,107.605811 26.3906543,107.605811 C26.3906543,107.605811 28.9195297,106.859883 29.7295297,109.455996 C30.5395297,112.052109 28.448877,112.992627 28.448877,112.992627 C28.448877,112.992627 32.2987485,112.635879 32.2987485,115.277871 C32.2987485,117.919863 27.7286557,119.951982 23.7708106,120.462583 C19.8129655,120.973184 14.1473145,121.583848 13.2360645,119.348833 C12.3248145,117.113818 15.0656836,116.552988 15.0656836,116.552988 C15.0656836,116.552988 12.0981885,116.552988 11.2881885,114.107959 C10.4781885,111.66293 13.6481836,109.455996 13.6481836,109.455996 C13.6481836,109.455996 7.00517674,93.7949614 4.1765625,76.0767187 C1.34794826,58.3584761 0.733092042,45.1706422 0.31640625,31.1581055 Z"></path>
        <path id="path-7" d="M73.6245703,28.8024609 L54.773877,37.5194531 C54.773877,37.5194531 53.558877,56.5726465 53.558877,64.2676465 C53.558877,71.9626465 54.7651758,89.5801465 54.7651758,89.5801465 C54.7651758,89.5801465 54.5349902,92.9807251 49.9621289,94.6521411 C45.3892676,96.3235571 37.5930176,96.9102002 25.2571289,96.6676489 C12.9212402,96.4250975 8.73360352,93.0977954 8.73360352,93.0977954 C8.73360352,93.0977954 8.66864441,73.8399816 8.73360352,64.2676489 C8.80364441,53.946466 9.96125977,34.1615918 9.96125977,34.1615918 L0.00158203125,27.8840918 C0.00158203125,27.8840918 7.08908203,8.87044919 14.784082,4.59975584 C22.479082,0.3290625 47.2086035,-2.40310524 57.1492969,3.03117196 C67.0899902,8.46544916 73.6245703,28.8024609 73.6245703,28.8024609 L73.6245703,28.8024609 Z"></path>
        <path d="M83.419415,40.2478206 C81.4669843,46.5329879 77.7320478,50.6189183 70.9809951,54.7477734 C66.2523355,57.6397595 60.0250872,59.4469252 52.7031148,60.5134915 L54.3157574,73.0389928 C54.3157574,73.0389928 55.6522049,81.0307707 47.4065327,82.1896243 C39.1608605,83.348478 39.8897675,76.6775916 39.8897675,76.6775916 L38.9979302,61.6867219 L38.9979302,61.6867219 C36.1515808,61.7964669 33.2075289,61.8447656 30.1812004,61.8447656 C12.9781925,61.8447656 5.48964849,56.3677734 1.40326182,47.1247559 C-2.68312486,37.8817383 3.88151367,12.7812305 3.88151367,12.7812305 L43.9077808,0.707333279 L81.9144141,7.37463867 C81.9144141,7.37463867 83.5923802,12.5767786 84.5152279,19.4929248 C84.8242824,19.4579239 85.1377896,19.44 85.455,19.44 C90.5995324,19.44 94.77,24.1544416 94.77,29.97 C94.77,35.7855584 90.5995324,40.5 85.455,40.5 C84.7558042,40.5 84.0746011,40.4129165 83.419415,40.2478206 Z" id="path-9"></path>
        <path d="M64.7903406,56.7876452 C66.8486558,55.439345 69.487155,53.4504617 72.1615675,50.7250859 C77.9160919,44.8609039 81.9066898,36.0165505 79.7315421,22.9440486 C77.5563943,9.8715467 69.8824876,0.433743067 69.8824876,0.433743067 L58.4286802,5.7470939 C58.4286802,5.7470939 67.8478256,13.9214586 69.8824877,27.6208358 C71.8256758,40.7043179 62.2888317,48.5387148 61.4273915,49.2167061 C60.7384429,48.9351121 59.9228721,48.7324394 58.9581424,48.6560492 C53.536616,48.2267569 42.1392019,51.2558996 42.755232,54.441636 C43.3712621,57.6273724 45.8747704,57.4313086 45.8747704,57.4313086 C45.8747704,57.4313086 41.7711328,60.2759385 43.2892858,63.2554815 C44.8074389,66.2350245 48.7279281,64.592102 48.7279281,64.592102 C48.7279281,64.592102 47.309951,66.5135417 49.6248954,67.9241097 C51.9398399,69.3346777 60.620177,64.2619719 63.1132916,60.4832509 C64.0002209,59.1389651 64.506337,57.8677054 64.7903406,56.7876452 L64.7903406,56.7876452 Z M9.99374227,58.312277 C9.99374227,58.312277 12.2514121,59.8262068 11.5177659,61.881156 C10.7841198,63.9361051 7.24394866,63.9813449 3.0568775,60.2861664 C-1.13019366,56.5909879 0.873101534,48.3981569 6.22059813,47.6466152 C11.5680947,46.8950736 14.430449,47.9355204 14.2810229,50.5098509 C14.1315968,53.0841815 11.7334425,53.0885244 11.7334425,53.0885244 C11.7334425,53.0885244 13.8594579,53.907239 13.7067325,56.1852829 C13.554007,58.4633269 9.99374227,58.312277 9.99374227,58.312277 Z" id="path-11"></path>
        <path id="path-13" d="M85.6970508,14.8228418 C85.6970508,14.8228418 81.0585352,2.6728418 61.001543,0.647841797 C40.9445508,-1.3771582 30.2120508,3.65765625 30.2120508,8.3428418 C30.2120508,13.0280273 32.8263574,14.6480273 32.8263574,14.6480273 C32.8263574,14.6480273 -7.03608394,31.8019931 1.4420215,46.3725009 C9.92012693,60.9430087 38.3634668,38.4488965 38.3634668,38.4488965 C38.3634668,38.4488965 35.2634777,43.845997 40.9516711,46.3725009 C46.6398644,48.8990048 61.6936816,37.817666 61.6936816,37.817666 C61.6936816,37.817666 61.860584,42.0140048 66.2823613,42.0140048 C70.7041387,42.0140048 81.5750684,33.9938965 81.5750684,33.9938965 C81.5750684,33.9938965 80.6353398,63.0740048 89.1039531,63.0740048 C97.5725664,63.0740048 93.9180762,47.9663965 93.9180762,47.9663965 C93.9180762,47.9663965 95.829168,51.6976181 99.4037676,49.6726181 C102.978367,47.6476181 102.563084,33.9938974 97.4910918,24.992138 C92.4190996,15.9903787 85.6970508,14.8228418 85.6970508,14.8228418 L85.6970508,14.8228418 Z"></path>
    </defs>
    <g stroke="none" stroke-width="1" fill="none" fill-rule="evenodd">
        <g>
            <g>
                <mask id="mask-2" fill="white">
                    <use xlink:href="#path-1"></use>
                </mask>
                <use id="Oval-11" fill="#5CC6E4" xlink:href="#path-1"></use>
                <ellipse id="Oval-13" fill="#44B282" mask="url(#mask-2)" cx="202.095" cy="399.33" rx="247.455" ry="83.43"></ellipse>
            </g>
            <path d="M186.970251,340.55033 C192.721699,341.081626 193.323118,354.787596 193.616835,358.023935 C193.910551,361.260274 193.051346,368.447313 186.783269,368.975956 C180.515192,369.504599 178.339177,364.224353 177.896778,359.349751 C177.454378,354.475149 181.218803,340.019034 186.970251,340.55033 L186.970251,340.55033 Z" id="Path-70" fill="#30323A"></path>
            <path d="M224.308488,344.695222 C219.91538,347.513749 217.189009,354.330227 227.20321,357.903661 C237.217411,361.477096 245.564402,360.847758 247.058661,356.229071 C248.55292,351.610384 245.589966,347.887709 238.661414,347.455689 C231.732862,347.023669 228.701597,341.876694 224.308488,344.695222 L224.308488,344.695222 Z" id="Path-71" fill="#30323A"></path>
            <path d="M239.194729,356.919588 C236.114544,356.742647 234.727889,355.263582 234.97949,353.02144 C235.231091,350.779298 237.22154,350.198526 240.22643,349.945097 C243.23132,349.691667 245.813532,352.295894 245.282994,354.373374 C244.752457,356.450854 242.274913,357.096528 239.194729,356.919588 L239.194729,356.919588 Z" id="Oval-35" fill="#464952"></path>
            <path d="M187.041978,365.803297 C190.386555,366.085376 191.577334,363.328254 191.820005,360.654364 C192.062676,357.980474 190.963381,355.762311 188.442826,355.54973 C185.922271,355.337149 184.437807,357.362997 184.197441,360.011484 C183.957075,362.659971 183.6974,365.521219 187.041978,365.803297 L187.041978,365.803297 Z" id="Oval-36" fill="#464952"></path>
            <g id="Path-168" transform="translate(79.380000, 141.750000)">
                <mask id="mask-4" fill="white">
                    <use xlink:href="#path-3"></use>
                </mask>
                <use fill="#FF9782" xlink:href="#path-3"></use>
                <path d="M116.155898,-5.63519531 C116.155898,-5.63519531 93.0360938,4.79671875 86.315625,29.7421875 C79.5951563,54.6876562 85.6163672,69.155332 74.6354883,100.098281 C63.6546094,131.04123 33.8428125,139.895859 33.8428125,139.895859 L169.658613,131.942988 C169.658613,131.942988 169.658613,87.6508594 166.265156,52.4791406 C162.871699,17.3074219 145.505742,-5.63519531 145.505742,-5.63519531 L116.155898,-5.63519531 Z" id="Path-167" fill="#DD7A66" mask="url(#mask-4)"></path>
            </g>
            <g id="Path-69" transform="translate(209.371019, 290.531151) scale(-1, 1) rotate(5.000000) translate(-209.371019, -290.531151) translate(172.516019, 229.781151)">
                <mask id="mask-6" fill="white">
                    <use xlink:href="#path-5"></use>
                </mask>
                <use fill="#4F818F" xlink:href="#path-5"></use>
                <path d="M25.185617,24.915458 C29.1346184,26.2764688 30.5691458,28.37498 30.5691458,28.37498 L34.9952234,122.061624 L27.0366514,122.061628 C27.0366514,122.061628 15.6344089,95.6441155 11.8299263,69.9877037 C8.56249722,47.9530364 10.8751329,31.1205957 13.1430826,24.915458 C13.9688516,22.6561441 20.6995824,23.3693604 25.185617,24.915458 Z" id="Path-100" fill="#2F5964" mask="url(#mask-6)"></path>
                <path d="M49.1326082,69.9977249 C42.6001174,49.2831934 42.4046916,34.438264 37.7764434,21.0804659 C33.6813246,9.26135685 20.2078241,7.30610253 20.2078241,7.30610253 L54.0451454,1.07349305 L90.0643679,103.410668 L71.0290207,120.432906 C71.0290207,120.432906 55.6650991,90.7122565 49.1326082,69.9977249 Z" id="Path-101" fill="#2F5964" mask="url(#mask-6)"></path>
            </g>
            <path d="M251.267773,196.97985 C250.157278,212.288961 243.549756,225.600393 243.549756,225.600393 L236.276926,221.934382 C236.276926,221.934382 241.258937,214.236075 242.315741,199.66713 C243.372546,185.098184 234.565426,172.478664 234.565426,172.478664 L243.346191,167.217827 C243.346191,167.217827 252.378268,181.67074 251.267773,196.97985 Z" id="Path-167" fill="#F5DAC3"></path>
            <g id="Path-68" transform="translate(209.481219, 191.223651) scale(-1, 1) rotate(5.000000) translate(-209.481219, -191.223651) translate(172.481219, 142.723651)">
                <mask id="mask-8" fill="white">
                    <use xlink:href="#path-7"></use>
                </mask>
                <use fill="#5290C4" xlink:href="#path-7"></use>
                <path d="M6.46581505,-0.462704283 C6.46581505,-0.462704283 25.9885488,0.424710016 34.4978268,18.432286 C43.0071047,36.4398619 39.1115026,101.508245 39.1115026,101.508245 L78.4339986,97.0094051 L78.4339986,-7.97198163 L6.46581505,-0.462704283 L6.46581505,-0.462704283 Z" id="Path-95" fill="#4B7FAB" mask="url(#mask-8)"></path>
            </g>
            <path d="M180.47035,60.7205422 C180.47035,60.7205422 173.311661,60.3718946 166.404418,65.3644856 C159.497175,70.3570767 154.930525,76.1064825 153.521722,87.059228 C152.112919,98.0119735 159.348099,106.936879 159.348099,106.936879 L177.363854,88.6246718 L180.47035,60.7205422 L180.47035,60.7205422 Z" id="Path-73" fill="#B86236"></path>
            <g id="Path-66" transform="translate(202.454867, 110.795528) scale(-1, 1) rotate(10.000000) translate(-202.454867, -110.795528) translate(154.954867, 69.295528)">
                <mask id="mask-10" fill="white">
                    <use xlink:href="#path-9"></use>
                </mask>
                <use fill="#F5DAC3" xlink:href="#path-9"></use>
                <path d="M49.4732813,5.47145508 C49.4732813,5.47145508 76.2871428,15.9289257 71.4816441,38.7277017 C66.6761454,61.5264776 27.7573439,63.7064178 13.623452,58.5509766 C-0.510439911,53.3955353 -16.183364,36.0034501 -16.183364,36.0034501 L-13.7067187,58.5509766 C-13.7067187,58.5509766 8.14027382,67.9081414 42.5526176,67.9081414 C76.9649613,67.9081414 99.3436523,48.8483789 99.3436523,48.8483789 L93.6736523,1.86837891 L49.4732813,5.47145508 L49.4732813,5.47145508 Z" id="Path-96" fill="#DEBDA0" mask="url(#mask-10)"></path>
                <path d="M87.6502687,21.969554 C87.6502687,21.969554 93.0391565,23.1476202 93.0391565,30.0065556 C93.0391565,36.865491 86.069103,36.8059126 86.069103,36.8059126 C86.069103,36.8059126 89.8863053,34.9156376 89.8863053,30.0065556 C89.8863053,25.0974737 87.6502687,21.969554 87.6502687,21.969554 L87.6502687,21.969554 Z" id="Path-97" fill="#F5DAC3" mask="url(#mask-10)"></path>
            </g>
            <g id="Path-67" transform="translate(205.305693, 206.792684) scale(-1, 1) rotate(5.000000) translate(-205.305693, -206.792684) translate(164.805693, 172.292684)">
                <mask id="mask-12" fill="white">
                    <use xlink:href="#path-11"></use>
                </mask>
                <use fill="#F5DAC3" xlink:href="#path-11"></use>
                <path d="M16.8336029,35.4683945 C16.8336029,35.4683945 19.8994345,52.9764051 8.11510436,58.1882112 C-3.66922573,63.4000173 -15.7738326,44.8148559 -15.7738326,44.8148559 L-0.558594598,69.4897493 L22.7945949,60.5968143 L16.8336029,35.4683945 L16.8336029,35.4683945 Z" id="Path-102" fill="#DEBDA0" mask="url(#mask-12)"></path>
                <path d="M52.1624414,66.0908988 C59.2650702,63.5965134 63.4839571,54.617839 63.4839571,54.617839 C63.4839571,54.617839 71.9913661,50.6556241 75.8614752,41.9699947 C79.7315843,33.2843653 79.9689054,19.0649303 71.9744628,10.6154522 C63.9800201,2.16597408 56.3480039,4.46998466 56.3480039,4.46998466 L87.1637979,-8.1261166 L99.2794106,41.9699937 L41.5540721,88.9354708 L31.7623503,60.2317204 L37.6899581,59.5807488 C37.6899581,59.5807488 45.0598127,68.5852842 52.1624414,66.0908988 Z" id="Path-103" fill="#DEBDA0" mask="url(#mask-12)"></path>
            </g>
            <g id="Path-72" transform="translate(208.026502, 75.228805) scale(-1, 1) rotate(10.000000) translate(-208.026502, -75.228805) translate(157.026502, 43.228805)">
                <mask id="mask-14" fill="white">
                    <use xlink:href="#path-13"></use>
                </mask>
                <use fill="#D47B4E" xlink:href="#path-13"></use>
                <path d="M30.1544711,65.0172096 L76.6139334,53.3340708 L81.3229638,34.4064892 C81.3229638,34.4064892 72.8124583,37.7814951 68.2633274,37.7814951 C63.7141966,37.7814951 64.4164014,34.2213199 61.6305154,34.9999106 C58.8446294,35.7785014 54.0166717,40.7942515 46.1350662,41.4659365 C38.2534607,42.1376216 42.2182257,36.9662125 39.7596286,35.9374202 C37.3010315,34.9086279 27.8744108,43.8774114 18.3433966,48.1946832 C11.6037239,51.2475585 3.21406093,51.6023182 3.21406093,51.6023182 L30.1544711,65.0172096 L30.1544711,65.0172096 Z" id="Path-166" fill="#B86236" mask="url(#mask-14)"></path>
                <path d="M83.0315364,16.7871969 C83.0315364,16.7871969 82.9336266,13.4777891 76.7185921,7.27777621 C70.5035577,1.0777633 48.7964234,-5.02241681 48.7964234,-5.02241681 L106.072899,-5.02241711 L109.365825,66.8336356 L82.0951578,63.5828593 C82.0951578,63.5828593 85.4165752,65.4453396 89.142316,61.3031523 C92.8680567,57.160965 88.3702847,38.2996269 88.3702847,38.2996269 C88.3702847,38.2996269 91.8587285,40.3239719 94.9064824,37.6698549 C97.9542362,35.0157379 94.9064824,30.4056092 94.9064824,30.4056092 C94.9064824,30.4056092 97.7908235,27.6649116 92.8575124,22.2000426 C87.9242014,16.7351737 83.0315364,16.7871969 83.0315364,16.7871969 L83.0315364,16.7871969 Z" id="Path-165" fill="#B86236" mask="url(#mask-14)"></path>
            </g>
            <path d="M209.414106,113.563173 C212.203468,113.01065 224.459938,110.641592 224.607819,111.64385 C224.764283,112.704275 210.863609,114.614554 209.127025,114.848983 C209.084761,114.938121 209.037232,115.026661 208.984052,115.114372 C207.735337,117.173936 205.39494,117.535259 205.39494,117.535259 C205.39494,117.535259 206.708203,116.966887 207.6987,114.242807 C208.689196,111.518727 208.366066,110.538686 208.366066,110.538686 C208.366066,110.538686 209.430614,111.973588 209.414106,113.563173 Z" id="Path-163" fill="#30323A"></path>
            <path d="M229.883712,98.7961772 C227.803403,98.9716285 225.887469,96.5849744 225.604352,93.465436 C225.321236,90.3458976 226.778148,87.6747806 228.858457,87.4993293 C230.938765,87.323878 232.8547,89.7105322 233.137816,92.8300706 C233.420933,95.949609 231.964021,98.6207259 229.883712,98.7961772 L229.883712,98.7961772 Z" id="Oval-27" fill="#30323A"></path>
            <path d="M204.187778,100.748933 C202.107469,100.924384 200.191535,98.5377297 199.908418,95.4181913 C199.625302,92.2986529 201.082214,89.6275359 203.162523,89.4520846 C205.242831,89.2766333 207.158766,91.6632875 207.441882,94.7828259 C207.724999,97.9023643 206.268087,100.573481 204.187778,100.748933 L204.187778,100.748933 Z" id="Oval-28" fill="#30323A"></path>
            <path d="M170.176197,61.0790588 C170.176197,61.0790588 168.803699,59.5217876 168.767127,56.6934467 C168.730554,53.8651058 170.74937,52.2021961 171.866004,49.4445679 C172.670392,47.4580602 172.624176,45.2263227 171.522299,43.7800599 C168.89082,40.3261254 162.005423,43.7896883 163.434008,51.5999252 C164.862594,59.410162 170.176197,61.0790588 170.176197,61.0790588 L170.176197,61.0790588 Z M167.160998,61.0978084 C167.160998,61.0978084 161.604058,55.7463459 157.043605,56.5215282 C152.483151,57.2967104 152.481249,59.6094994 152.715356,60.8893936 C152.949464,62.1692879 154.666693,63.4195738 157.32652,62.9674586 C159.986347,62.5153433 160.628541,61.4117993 162.548966,61.085367 C164.469391,60.7589347 167.160998,61.0978084 167.160998,61.0978084 L167.160998,61.0978084 Z" id="Path-74" fill="#D47B4E"></path>
            <g id="Path-175-+-Path-172-+-Path-174" transform="translate(215.460000, 177.390000) rotate(-6.000000) translate(-215.460000, -177.390000) translate(199.260000, 165.240000)">
                <path d="M0.247746094,5.97398939 L5.88104297,0.171265291 L26.7129416,0.171265291 L32.4,5.95931396 L16.3692773,24.1287347 L0.247746094,5.97398939 Z" id="Path-175" fill="#FF9782"></path>
                <path d="M2.62364063,5.91684892 L6.49771875,1.93699951 L25.9058888,1.93699951 L29.8814062,5.79757209 L16.4369883,21.0515798 L2.62364063,5.91684892 Z" id="Path-172" fill="#F9FFBF"></path>
                <path d="M9.33113672,13.3210674 C9.33113672,13.3210674 21.5089805,17.5301032 22.0683867,13.6813958 C22.627793,9.8326885 8.96315623,13.5752332 6.44804304,10.8577823 C3.93292984,8.14033139 5.43585933,5.33795038 7.25677733,3.56003868 C9.07769534,1.78212698 13.0498591,0.374847733 16.8786914,1.06271908 C20.7075237,1.75059043 23.3713477,4.36281546 23.3713477,4.36281546 L24.2651953,1.02275198 L26.8340977,0.856014212 L24.9476836,5.9711792 L22.3135122,5.9711792 C22.3135122,5.9711792 21.6225705,5.23085102 18.3844687,3.99936459 C15.146367,2.76787816 9.60862509,3.17754099 10.1617031,5.89155723 C10.7147812,8.60557347 16.7502307,7.51490864 20.0607893,7.51490864 C23.3713479,7.51490864 26.2284958,9.32935277 25.7500898,10.8577823 C25.2716839,12.3862118 21.1160039,16.7057816 21.1160039,16.7057816 C21.1160039,16.7057816 18.384469,17.2824945 16.34175,17.2824945 C14.299031,17.2824945 11.2422305,16.2302355 11.2422305,16.2302355 L9.33113672,13.3210674 Z" id="Path-173" fill="#FF9782"></path>
            </g>
        </g>
    </g>
</svg>