<svg viewBox="0 0 25 15" preserveAspectRatio="xMinYMid" version="1.1" xmlns="http://www.w3.org/2000/svg">
    <g stroke="none" stroke-width="1" fill="none" fill-rule="evenodd">
        <g transform="translate(-71.000000, -3874.000000)" fill="#FFFFFF">
            <g transform="translate(0.000000, 3841.000000)">
                <g transform="translate(44.000000, 30.000000)">
                    <g transform="translate(27.000000, 3.000000)">
                        <path d="M22.3023362,9.84416354 C24.295577,11.6945297 24.7101935,12.5952 24.7774286,12.7072585 C25.6038601,14.0771738 23.862751,14.1850301 23.862751,14.1850301 L20.5346132,14.2312542 C20.5346132,14.2312542 19.8174387,14.3727281 18.8761473,13.7255902 C17.6308971,12.8725448 16.4570842,10.6509848 15.5424066,10.9409362 C14.6151224,11.2350898 14.643137,13.2339335 14.643137,13.2339335 C14.643137,13.2339335 14.6501407,13.5196827 14.4386302,13.7480019 C14.210311,13.9917292 13.7606762,13.9020824 13.7606762,13.9020824 L12.2716988,13.9020824 C12.2716988,13.9020824 8.98418224,14.2396586 6.08887047,11.2266854 C2.93162194,7.93916886 0.144166489,1.48599939 0.144166489,1.48599939 C0.144166489,1.48599939 -0.0155168882,1.0937946 0.158173803,0.886486356 C0.355676928,0.653964946 0.889355584,0.656766409 0.889355584,0.656766409 L4.45001476,0.642759095 C4.45001476,0.642759095 4.78478956,0.702990545 5.02571535,0.879482699 C5.22461921,1.02515876 5.33527699,1.29970211 5.33527699,1.29970211 C5.33527699,1.29970211 5.91097759,2.75646275 6.67297546,4.07315025 C8.16055219,6.64349233 8.85391422,7.20658635 9.35817752,6.93064227 C10.0949622,6.52863236 9.87364667,3.29714506 9.87364667,3.29714506 C9.87364667,3.29714506 9.88765398,2.12333217 9.50245285,1.60085936 C9.2054978,1.19604799 8.64520524,1.07698582 8.39727579,1.044769 C8.19557047,1.01815511 8.52474235,0.553112287 8.95196542,0.344403311 C9.59350039,0.0306394816 10.7252913,0.013830705 12.0629898,0.0264372875 C13.1037332,0.0362424072 13.4048905,0.102076782 13.8111026,0.200127979 C15.039544,0.4956823 14.622126,1.64148057 14.622126,4.38691408 C14.622126,5.26657339 14.4638434,6.5034192 15.0983747,6.91383349 C15.3715173,7.09032564 16.0396662,6.94044739 17.7065366,4.1067678 C18.4979498,2.76346641 19.0904592,1.18484214 19.0904592,1.18484214 C19.0904592,1.18484214 19.2207272,0.903295132 19.4210318,0.782832234 C19.6269393,0.659567872 19.9056848,0.697387619 19.9056848,0.697387619 L23.654042,0.673575186 C23.654042,0.673575186 24.78023,0.539104973 24.9623251,1.04757046 C25.1542253,1.58124912 24.540705,2.82649932 23.0097056,4.86736494 C20.493992,8.21931514 20.2152465,7.90695204 22.3023362,9.84416354 L22.3023362,9.84416354 Z"></path>
                    </g>
                </g>
            </g>
        </g>
    </g>
</svg>